<svg width="192" height="34" viewBox="0 0 192 34" fill="none" xmlns="http://www.w3.org/2000/svg">
<path d="M7.64 26V6.2H0.152V0.799998H21.428V6.2H13.76V26H7.64ZM30.5599 26.36C28.5679 26.36 26.7919 25.928 25.2319 25.064C23.6959 24.2 22.4719 23.024 21.5599 21.536C20.6719 20.048 20.2279 18.344 20.2279 16.424C20.2279 14.504 20.6719 12.8 21.5599 11.312C22.4719 9.824 23.6959 8.648 25.2319 7.784C26.7919 6.92 28.5679 6.488 30.5599 6.488C32.5519 6.488 34.3159 6.92 35.8519 7.784C37.4119 8.648 38.6359 9.824 39.5239 11.312C40.4119 12.8 40.8559 14.504 40.8559 16.424C40.8559 18.344 40.4119 20.048 39.5239 21.536C38.6359 23.024 37.4119 24.2 35.8519 25.064C34.3159 25.928 32.5519 26.36 30.5599 26.36ZM30.5599 21.392C31.4239 21.392 32.1919 21.176 32.8639 20.744C33.5359 20.312 34.0639 19.724 34.4479 18.98C34.8319 18.236 35.0119 17.384 34.9879 16.424C35.0119 15.464 34.8319 14.612 34.4479 13.868C34.0639 13.1 33.5359 12.5 32.8639 12.068C32.1919 11.636 31.4239 11.42 30.5599 11.42C29.6959 11.42 28.9159 11.636 28.2199 12.068C27.5479 12.5 27.0199 13.1 26.6359 13.868C26.2519 14.612 26.0719 15.464 26.0959 16.424C26.0719 17.384 26.2519 18.236 26.6359 18.98C27.0199 19.724 27.5479 20.312 28.2199 20.744C28.9159 21.176 29.6959 21.392 30.5599 21.392ZM43.9024 18.296V13.004H56.3584V18.296H43.9024ZM61.3711 26V0.799998H71.9191C73.7671 0.799998 75.4591 1.112 76.9951 1.736C78.5311 2.336 79.8511 3.2 80.9551 4.328C82.0831 5.456 82.9471 6.788 83.5471 8.324C84.1471 9.86 84.4471 11.552 84.4471 13.4C84.4471 15.248 84.1471 16.952 83.5471 18.512C82.9471 20.048 82.0831 21.38 80.9551 22.508C79.8511 23.612 78.5311 24.476 76.9951 25.1C75.4591 25.7 73.7671 26 71.9191 26H61.3711ZM67.4911 21.824L66.6631 20.6H71.7391C72.7471 20.6 73.6471 20.432 74.4391 20.096C75.2311 19.736 75.9031 19.244 76.4551 18.62C77.0311 17.996 77.4751 17.24 77.7871 16.352C78.0991 15.464 78.2551 14.48 78.2551 13.4C78.2551 12.32 78.0991 11.336 77.7871 10.448C77.4751 9.56 77.0311 8.804 76.4551 8.18C75.9031 7.556 75.2311 7.076 74.4391 6.74C73.6471 6.38 72.7471 6.2 71.7391 6.2H66.5551L67.4911 5.048V21.824ZM97.5677 26.36C95.5757 26.36 93.7997 25.928 92.2397 25.064C90.7037 24.2 89.4797 23.024 88.5677 21.536C87.6797 20.048 87.2357 18.344 87.2357 16.424C87.2357 14.504 87.6797 12.8 88.5677 11.312C89.4797 9.824 90.7037 8.648 92.2397 7.784C93.7997 6.92 95.5757 6.488 97.5677 6.488C99.5597 6.488 101.324 6.92 102.86 7.784C104.42 8.648 105.644 9.824 106.532 11.312C107.42 12.8 107.864 14.504 107.864 16.424C107.864 18.344 107.42 20.048 106.532 21.536C105.644 23.024 104.42 24.2 102.86 25.064C101.324 25.928 99.5597 26.36 97.5677 26.36ZM97.5677 21.392C98.4317 21.392 99.1997 21.176 99.8717 20.744C100.544 20.312 101.072 19.724 101.456 18.98C101.84 18.236 102.02 17.384 101.996 16.424C102.02 15.464 101.84 14.612 101.456 13.868C101.072 13.1 100.544 12.5 99.8717 12.068C99.1997 11.636 98.4317 11.42 97.5677 11.42C96.7037 11.42 95.9237 11.636 95.2277 12.068C94.5557 12.5 94.0277 13.1 93.6437 13.868C93.2597 14.612 93.0797 15.464 93.1037 16.424C93.0797 17.384 93.2597 18.236 93.6437 18.98C94.0277 19.724 94.5557 20.312 95.2277 20.744C95.9237 21.176 96.7037 21.392 97.5677 21.392ZM120.569 26L130.541 0.799998H135.725L145.625 26H139.433L134.681 13.22C134.489 12.716 134.297 12.176 134.105 11.6C133.913 11.024 133.721 10.436 133.529 9.836C133.337 9.212 133.145 8.612 132.953 8.036C132.785 7.436 132.641 6.884 132.521 6.38L133.601 6.344C133.457 6.944 133.289 7.532 133.097 8.108C132.929 8.684 132.749 9.26 132.557 9.836C132.389 10.388 132.197 10.952 131.981 11.528C131.765 12.08 131.561 12.656 131.369 13.256L126.617 26H120.569ZM125.321 21.176L127.229 16.568H138.821L140.693 21.176H125.321ZM148.158 33.92V6.884H153.63L153.846 11.168L152.766 10.844C152.934 10.052 153.342 9.332 153.99 8.684C154.638 8.036 155.454 7.52 156.438 7.136C157.446 6.728 158.502 6.524 159.606 6.524C161.238 6.524 162.69 6.956 163.962 7.82C165.234 8.66 166.23 9.824 166.95 11.312C167.694 12.776 168.066 14.48 168.066 16.424C168.066 18.344 167.694 20.048 166.95 21.536C166.23 23.024 165.222 24.2 163.926 25.064C162.654 25.904 161.19 26.324 159.534 26.324C158.454 26.324 157.422 26.12 156.438 25.712C155.454 25.304 154.626 24.752 153.954 24.056C153.282 23.36 152.838 22.604 152.622 21.788L153.954 21.284V33.92H148.158ZM158.13 21.464C158.994 21.464 159.75 21.26 160.398 20.852C161.046 20.42 161.55 19.832 161.91 19.088C162.27 18.344 162.45 17.456 162.45 16.424C162.45 15.416 162.27 14.54 161.91 13.796C161.55 13.028 161.046 12.44 160.398 12.032C159.774 11.6 159.018 11.384 158.13 11.384C157.242 11.384 156.474 11.588 155.826 11.996C155.178 12.404 154.674 12.992 154.314 13.76C153.954 14.528 153.774 15.416 153.774 16.424C153.774 17.456 153.954 18.344 154.314 19.088C154.674 19.832 155.178 20.42 155.826 20.852C156.474 21.26 157.242 21.464 158.13 21.464ZM171.888 33.92V6.884H177.36L177.576 11.168L176.496 10.844C176.664 10.052 177.072 9.332 177.72 8.684C178.368 8.036 179.184 7.52 180.168 7.136C181.176 6.728 182.232 6.524 183.336 6.524C184.968 6.524 186.42 6.956 187.692 7.82C188.964 8.66 189.96 9.824 190.68 11.312C191.424 12.776 191.796 14.48 191.796 16.424C191.796 18.344 191.424 20.048 190.68 21.536C189.96 23.024 188.952 24.2 187.656 25.064C186.384 25.904 184.92 26.324 183.264 26.324C182.184 26.324 181.152 26.12 180.168 25.712C179.184 25.304 178.356 24.752 177.684 24.056C177.012 23.36 176.568 22.604 176.352 21.788L177.684 21.284V33.92H171.888ZM181.86 21.464C182.724 21.464 183.48 21.26 184.128 20.852C184.776 20.42 185.28 19.832 185.64 19.088C186 18.344 186.18 17.456 186.18 16.424C186.18 15.416 186 14.54 185.64 13.796C185.28 13.028 184.776 12.44 184.128 12.032C183.504 11.6 182.748 11.384 181.86 11.384C180.972 11.384 180.204 11.588 179.556 11.996C178.908 12.404 178.404 12.992 178.044 13.76C177.684 14.528 177.504 15.416 177.504 16.424C177.504 17.456 177.684 18.344 178.044 19.088C178.404 19.832 178.908 20.42 179.556 20.852C180.204 21.26 180.972 21.464 181.86 21.464Z" fill="#BA5112"/>
</svg>
