<?xml version="1.0" encoding="utf-8"?>
<svg viewBox="0 0 29 29" xmlns="http://www.w3.org/2000/svg" width="29" height="29">
  <g fill="none" fill-rule="evenodd" id="Page-1" stroke="none" stroke-width="1" transform="matrix(0.962056040763855, 0, 0, 1.146093964576721, 5.872492011561746, -3.571196185684091)" style="">
    <g fill="#BA5112" id="icon-22-eye">
      <path d="M 10.087 9.512 C 1.087 9.512 -2.811 16.918 -2.811 16.918 C -2.811 16.918 1.189 23.918 10.189 23.918 C 19.189 23.918 23.189 16.918 23.189 16.918 C 23.189 16.918 19.087 9.512 10.087 9.512 Z M 10.087 11.223 C 2.087 11.223 -0.601 16.918 -0.601 16.918 C -0.601 16.918 2.219 22.278 10.219 22.278 C 18.219 22.278 20.878 16.984 20.878 16.984 C 20.878 16.984 18.087 11.223 10.087 11.223 Z M 10.189 20.918 C 12.398 20.918 14.189 19.127 14.189 16.918 C 14.189 14.709 12.398 12.918 10.189 12.918 C 7.98 12.918 6.189 14.709 6.189 16.918 C 6.189 19.127 7.98 20.918 10.189 20.918 Z M 10.189 19.918 C 11.846 19.918 13.189 18.575 13.189 16.918 C 13.189 15.261 11.846 13.918 10.189 13.918 C 8.532 13.918 7.189 15.261 7.189 16.918 C 7.189 18.575 8.532 19.918 10.189 19.918 Z M 10.189 17.918 C 10.741 17.918 11.189 17.47 11.189 16.918 C 11.189 16.366 10.741 15.918 10.189 15.918 C 9.637 15.918 9.189 16.366 9.189 16.918 C 9.189 17.47 9.637 17.918 10.189 17.918 Z" id="eye"/>
    </g>
  </g>
</svg>